<svg class="main-svg" xmlns="http://www.w3.org/2000/svg" xmlns:xlink="http://www.w3.org/1999/xlink" width="2250" height="750" viewBox="0 0 2250 750"><rect x="0" y="0" width="2250" height="750" style="fill: rgb(255, 255, 255); fill-opacity: 1;"/><defs id="defs-b62bd8"><g class="clips"><clipPath id="clipb62bd8xyplot" class="plotclip"><rect width="2043" height="550"/></clipPath><clipPath class="axesclip" id="clipb62bd8x"><rect x="127" y="0" width="2043" height="750"/></clipPath><clipPath class="axesclip" id="clipb62bd8y"><rect x="0" y="100" width="2250" height="550"/></clipPath><clipPath class="axesclip" id="clipb62bd8xy"><rect x="127" y="100" width="2043" height="550"/></clipPath></g><g class="gradients"/></defs><g class="bglayer"/><g class="layer-below"><g class="imagelayer"/><g class="shapelayer"/></g><g class="cartesianlayer"><g class="subplot xy"><g class="layer-subplot"><g class="shapelayer"/><g class="imagelayer"/></g><g class="gridlayer"><g class="x"/><g class="y"><path class="ygrid crisp" transform="translate(0,634.67)" d="M127,0h2043" style="stroke: rgb(238, 238, 238); stroke-opacity: 1; stroke-width: 1px;"/><path class="ygrid crisp" transform="translate(0,576.9100000000001)" d="M127,0h2043" style="stroke: rgb(238, 238, 238); stroke-opacity: 1; stroke-width: 1px;"/><path class="ygrid crisp" transform="translate(0,519.15)" d="M127,0h2043" style="stroke: rgb(238, 238, 238); stroke-opacity: 1; stroke-width: 1px;"/><path class="ygrid crisp" transform="translate(0,461.39)" d="M127,0h2043" style="stroke: rgb(238, 238, 238); stroke-opacity: 1; stroke-width: 1px;"/><path class="ygrid crisp" transform="translate(0,403.63)" d="M127,0h2043" style="stroke: rgb(238, 238, 238); stroke-opacity: 1; stroke-width: 1px;"/><path class="ygrid crisp" transform="translate(0,288.12)" d="M127,0h2043" style="stroke: rgb(238, 238, 238); stroke-opacity: 1; stroke-width: 1px;"/><path class="ygrid crisp" transform="translate(0,230.36)" d="M127,0h2043" style="stroke: rgb(238, 238, 238); stroke-opacity: 1; stroke-width: 1px;"/><path class="ygrid crisp" transform="translate(0,172.6)" d="M127,0h2043" style="stroke: rgb(238, 238, 238); stroke-opacity: 1; stroke-width: 1px;"/><path class="ygrid crisp" transform="translate(0,114.84)" d="M127,0h2043" style="stroke: rgb(238, 238, 238); stroke-opacity: 1; stroke-width: 1px;"/></g></g><g class="zerolinelayer"><path class="yzl zl crisp" transform="translate(0,345.87)" d="M127,0h2043" style="stroke: rgb(68, 68, 68); stroke-opacity: 1; stroke-width: 1px;"/></g><path class="xlines-below"/><path class="ylines-below"/><g class="overlines-below"/><g class="xaxislayer-below"/><g class="yaxislayer-below"/><g class="overaxes-below"/><g class="plot" transform="translate(127, 100)" clip-path="url(#clipb62bd8xyplot)"><g class="boxlayer mlayer"><g class="trace boxes" style="opacity: 1;"><path class="box" d="M65.81,155.45H121.26M65.81,183.81H121.26V85.41H65.81ZM93.53,183.81V214.76M93.53,85.41V49.2M79.67,214.76H107.4M79.67,49.2H107.4" style="vector-effect: non-scaling-stroke; stroke-width: 2px; stroke: rgb(255, 0, 0); stroke-opacity: 1; fill: rgb(255, 0, 0); fill-opacity: 0.5;"/><path class="box" d="M405.31,145.19H460.76M405.31,172.92H460.76V85.71H405.31ZM433.03,172.92V229.96M433.03,85.71V27.5M419.17,229.96H446.9M419.17,27.5H446.9" style="vector-effect: non-scaling-stroke; stroke-width: 2px; stroke: rgb(255, 0, 0); stroke-opacity: 1; fill: rgb(255, 0, 0); fill-opacity: 0.5;"/><path class="box" d="M744.81,107.36H800.26M744.81,114.81H800.26V71.1H744.81ZM772.53,114.81V114.86M772.53,71.1V29.21M758.67,114.86H786.4M758.67,29.21H786.4" style="vector-effect: non-scaling-stroke; stroke-width: 2px; stroke: rgb(255, 0, 0); stroke-opacity: 1; fill: rgb(255, 0, 0); fill-opacity: 0.5;"/><path class="box" d="M1084.31,98.39H1139.76M1084.31,121.07H1139.76V79.16H1084.31ZM1112.03,121.07V148.13M1112.03,79.16V74.94M1098.17,148.13H1125.9M1098.17,74.94H1125.9" style="vector-effect: non-scaling-stroke; stroke-width: 2px; stroke: rgb(255, 0, 0); stroke-opacity: 1; fill: rgb(255, 0, 0); fill-opacity: 0.5;"/><path class="box" d="M1423.81,187.98H1479.26M1423.81,208.88H1479.26V163.66H1423.81ZM1451.53,208.88V260.13M1451.53,163.66V122.54M1437.67,260.13H1465.4M1437.67,122.54H1465.4" style="vector-effect: non-scaling-stroke; stroke-width: 2px; stroke: rgb(255, 0, 0); stroke-opacity: 1; fill: rgb(255, 0, 0); fill-opacity: 0.5;"/><path class="box" d="M1763.31,195.3H1818.76M1763.31,221.36H1818.76V170.33H1763.31ZM1791.03,221.36V252.71M1791.03,170.33V136.19M1777.17,252.71H1804.9M1777.17,136.19H1804.9" style="vector-effect: non-scaling-stroke; stroke-width: 2px; stroke: rgb(255, 0, 0); stroke-opacity: 1; fill: rgb(255, 0, 0); fill-opacity: 0.5;"/><g class="points"/><g class="points"/><g class="points"><path class="point" transform="translate(772.53,211.99)" d="M3,0A3,3 0 1,1 0,-3A3,3 0 0,1 3,0Z" style="opacity: 1; stroke-width: 0px; fill: rgb(255, 0, 0); fill-opacity: 1;"/></g><g class="points"><path class="point" transform="translate(1112.03,218.83)" d="M3,0A3,3 0 1,1 0,-3A3,3 0 0,1 3,0Z" style="opacity: 1; stroke-width: 0px; fill: rgb(255, 0, 0); fill-opacity: 1;"/></g><g class="points"/><g class="points"/></g><g class="trace boxes" style="opacity: 1;"><path class="box" d="M145.02,317.03H200.48M145.02,409.61H200.48V276.25H145.02ZM172.75,409.61V456.57M172.75,276.25V181.99M158.89,456.57H186.61M158.89,181.99H186.61" style="vector-effect: non-scaling-stroke; stroke-width: 2px; stroke: rgb(0, 128, 0); stroke-opacity: 1; fill: rgb(0, 128, 0); fill-opacity: 0.5;"/><path class="box" d="M484.52,278.87H539.98M484.52,370.63H539.98V262.96H484.52ZM512.25,370.63V413.33M512.25,262.96V219.2M498.39,413.33H526.11M498.39,219.2H526.11" style="vector-effect: non-scaling-stroke; stroke-width: 2px; stroke: rgb(0, 128, 0); stroke-opacity: 1; fill: rgb(0, 128, 0); fill-opacity: 0.5;"/><path class="box" d="M824.02,273.06H879.48M824.02,318.72H879.48V244.26H824.02ZM851.75,318.72V413.44M851.75,244.26V232M837.89,413.44H865.61M837.89,232H865.61" style="vector-effect: non-scaling-stroke; stroke-width: 2px; stroke: rgb(0, 128, 0); stroke-opacity: 1; fill: rgb(0, 128, 0); fill-opacity: 0.5;"/><path class="box" d="M1163.52,278.45H1218.98M1163.52,326.25H1218.98V254.89H1163.52ZM1191.25,326.25V371.9M1191.25,254.89V199.81M1177.39,371.9H1205.11M1177.39,199.81H1205.11" style="vector-effect: non-scaling-stroke; stroke-width: 2px; stroke: rgb(0, 128, 0); stroke-opacity: 1; fill: rgb(0, 128, 0); fill-opacity: 0.5;"/><path class="box" d="M1503.02,277.6H1558.48M1503.02,304.79H1558.48V250.34H1503.02ZM1530.75,304.79V308.54M1530.75,250.34V209.69M1516.89,308.54H1544.61M1516.89,209.69H1544.61" style="vector-effect: non-scaling-stroke; stroke-width: 2px; stroke: rgb(0, 128, 0); stroke-opacity: 1; fill: rgb(0, 128, 0); fill-opacity: 0.5;"/><path class="box" d="M1842.52,280.72H1897.98M1842.52,332.38H1897.98V257.76H1842.52ZM1870.25,332.38V395.61M1870.25,257.76V228.66M1856.39,395.61H1884.11M1856.39,228.66H1884.11" style="vector-effect: non-scaling-stroke; stroke-width: 2px; stroke: rgb(0, 128, 0); stroke-opacity: 1; fill: rgb(0, 128, 0); fill-opacity: 0.5;"/><g class="points"/><g class="points"/><g class="points"/><g class="points"/><g class="points"><path class="point" transform="translate(1530.75,409.36)" d="M3,0A3,3 0 1,1 0,-3A3,3 0 0,1 3,0Z" style="opacity: 1; stroke-width: 0px; fill: rgb(0, 128, 0); fill-opacity: 1;"/><path class="point" transform="translate(1530.75,397.63)" d="M3,0A3,3 0 1,1 0,-3A3,3 0 0,1 3,0Z" style="opacity: 1; stroke-width: 0px; fill: rgb(0, 128, 0); fill-opacity: 1;"/></g><g class="points"/></g><g class="trace boxes" style="opacity: 1;"><path class="box" d="M224.24,306.95H279.69M224.24,335.78H279.69V273.03H224.24ZM251.97,335.78V382.34M251.97,273.03V183.88M238.1,382.34H265.83M238.1,183.88H265.83" style="vector-effect: non-scaling-stroke; stroke-width: 2px; stroke: rgb(0, 0, 0); stroke-opacity: 1; fill: rgb(0, 0, 0); fill-opacity: 0.5;"/><path class="box" d="M563.74,293.86H619.19M563.74,312.96H619.19V275.75H563.74ZM591.47,312.96V352.44M591.47,275.75V225.97M577.6,352.44H605.33M577.6,225.97H605.33" style="vector-effect: non-scaling-stroke; stroke-width: 2px; stroke: rgb(0, 0, 0); stroke-opacity: 1; fill: rgb(0, 0, 0); fill-opacity: 0.5;"/><path class="box" d="M903.24,291.14H958.69M903.24,320.9H958.69V261.75H903.24ZM930.97,320.9V402.27M930.97,261.75V213.78M917.1,402.27H944.83M917.1,213.78H944.83" style="vector-effect: non-scaling-stroke; stroke-width: 2px; stroke: rgb(0, 0, 0); stroke-opacity: 1; fill: rgb(0, 0, 0); fill-opacity: 0.5;"/><path class="box" d="M1242.74,292.78H1298.19M1242.74,314.12H1298.19V267.39H1242.74ZM1270.47,314.12V357.67M1270.47,267.39V224.82M1256.6,357.67H1284.33M1256.6,224.82H1284.33" style="vector-effect: non-scaling-stroke; stroke-width: 2px; stroke: rgb(0, 0, 0); stroke-opacity: 1; fill: rgb(0, 0, 0); fill-opacity: 0.5;"/><path class="box" d="M1582.24,292.28H1637.69M1582.24,315.45H1637.69V270.18H1582.24ZM1609.97,315.45V373.88M1609.97,270.18V216.33M1596.1,373.88H1623.83M1596.1,216.33H1623.83" style="vector-effect: non-scaling-stroke; stroke-width: 2px; stroke: rgb(0, 0, 0); stroke-opacity: 1; fill: rgb(0, 0, 0); fill-opacity: 0.5;"/><path class="box" d="M1921.74,300.69H1977.19M1921.74,318.53H1977.19V281.86H1921.74ZM1949.47,318.53V369.92M1949.47,281.86V245.97M1935.6,369.92H1963.33M1935.6,245.97H1963.33" style="vector-effect: non-scaling-stroke; stroke-width: 2px; stroke: rgb(0, 0, 0); stroke-opacity: 1; fill: rgb(0, 0, 0); fill-opacity: 0.5;"/><g class="points"><path class="point" transform="translate(251.97,522.5)" d="M3,0A3,3 0 1,1 0,-3A3,3 0 0,1 3,0Z" style="opacity: 1; stroke-width: 0px; fill: rgb(0, 0, 0); fill-opacity: 1;"/><path class="point" transform="translate(251.97,164.13)" d="M3,0A3,3 0 1,1 0,-3A3,3 0 0,1 3,0Z" style="opacity: 1; stroke-width: 0px; fill: rgb(0, 0, 0); fill-opacity: 1;"/></g><g class="points"><path class="point" transform="translate(591.47,378.86)" d="M3,0A3,3 0 1,1 0,-3A3,3 0 0,1 3,0Z" style="opacity: 1; stroke-width: 0px; fill: rgb(0, 0, 0); fill-opacity: 1;"/><path class="point" transform="translate(591.47,377.48)" d="M3,0A3,3 0 1,1 0,-3A3,3 0 0,1 3,0Z" style="opacity: 1; stroke-width: 0px; fill: rgb(0, 0, 0); fill-opacity: 1;"/><path class="point" transform="translate(591.47,208.86)" d="M3,0A3,3 0 1,1 0,-3A3,3 0 0,1 3,0Z" style="opacity: 1; stroke-width: 0px; fill: rgb(0, 0, 0); fill-opacity: 1;"/><path class="point" transform="translate(591.47,138.16)" d="M3,0A3,3 0 1,1 0,-3A3,3 0 0,1 3,0Z" style="opacity: 1; stroke-width: 0px; fill: rgb(0, 0, 0); fill-opacity: 1;"/></g><g class="points"/><g class="points"><path class="point" transform="translate(1270.47,400.61)" d="M3,0A3,3 0 1,1 0,-3A3,3 0 0,1 3,0Z" style="opacity: 1; stroke-width: 0px; fill: rgb(0, 0, 0); fill-opacity: 1;"/><path class="point" transform="translate(1270.47,162.71)" d="M3,0A3,3 0 1,1 0,-3A3,3 0 0,1 3,0Z" style="opacity: 1; stroke-width: 0px; fill: rgb(0, 0, 0); fill-opacity: 1;"/></g><g class="points"><path class="point" transform="translate(1609.97,390.62)" d="M3,0A3,3 0 1,1 0,-3A3,3 0 0,1 3,0Z" style="opacity: 1; stroke-width: 0px; fill: rgb(0, 0, 0); fill-opacity: 1;"/></g><g class="points"><path class="point" transform="translate(1949.47,436.29)" d="M3,0A3,3 0 1,1 0,-3A3,3 0 0,1 3,0Z" style="opacity: 1; stroke-width: 0px; fill: rgb(0, 0, 0); fill-opacity: 1;"/><path class="point" transform="translate(1949.47,427.4)" d="M3,0A3,3 0 1,1 0,-3A3,3 0 0,1 3,0Z" style="opacity: 1; stroke-width: 0px; fill: rgb(0, 0, 0); fill-opacity: 1;"/><path class="point" transform="translate(1949.47,394.38)" d="M3,0A3,3 0 1,1 0,-3A3,3 0 0,1 3,0Z" style="opacity: 1; stroke-width: 0px; fill: rgb(0, 0, 0); fill-opacity: 1;"/><path class="point" transform="translate(1949.47,373.84)" d="M3,0A3,3 0 1,1 0,-3A3,3 0 0,1 3,0Z" style="opacity: 1; stroke-width: 0px; fill: rgb(0, 0, 0); fill-opacity: 1;"/><path class="point" transform="translate(1949.47,219.32)" d="M3,0A3,3 0 1,1 0,-3A3,3 0 0,1 3,0Z" style="opacity: 1; stroke-width: 0px; fill: rgb(0, 0, 0); fill-opacity: 1;"/></g></g></g></g><g class="overplot"/><path class="xlines-above crisp" d="M0,0" style="fill: none;"/><path class="ylines-above crisp" d="M0,0" style="fill: none;"/><g class="overlines-above"/><g class="xaxislayer-above"><g class="xtick"><text text-anchor="middle" x="0" y="687" transform="translate(299.75,0)" style="font-family: Arial; font-size: 36px; fill: rgb(68, 68, 68); fill-opacity: 1; white-space: pre;">1</text></g><g class="xtick"><text text-anchor="middle" x="0" y="687" transform="translate(639.25,0)" style="font-family: Arial; font-size: 36px; fill: rgb(68, 68, 68); fill-opacity: 1; white-space: pre;">2</text></g><g class="xtick"><text text-anchor="middle" x="0" y="687" transform="translate(978.75,0)" style="font-family: Arial; font-size: 36px; fill: rgb(68, 68, 68); fill-opacity: 1; white-space: pre;">3</text></g><g class="xtick"><text text-anchor="middle" x="0" y="687" transform="translate(1318.25,0)" style="font-family: Arial; font-size: 36px; fill: rgb(68, 68, 68); fill-opacity: 1; white-space: pre;">4</text></g><g class="xtick"><text text-anchor="middle" x="0" y="687" transform="translate(1657.75,0)" style="font-family: Arial; font-size: 36px; fill: rgb(68, 68, 68); fill-opacity: 1; white-space: pre;">5</text></g><g class="xtick"><text text-anchor="middle" x="0" y="687" transform="translate(1997.25,0)" style="font-family: Arial; font-size: 36px; fill: rgb(68, 68, 68); fill-opacity: 1; white-space: pre;">6</text></g></g><g class="yaxislayer-above"><g class="ytick"><text text-anchor="end" x="126" y="12.6" transform="translate(0,634.67)" style="font-family: Arial; font-size: 36px; fill: rgb(68, 68, 68); fill-opacity: 1; white-space: pre;">−1</text></g><g class="ytick"><text text-anchor="end" x="126" y="12.6" transform="translate(0,576.9100000000001)" style="font-family: Arial; font-size: 36px; fill: rgb(68, 68, 68); fill-opacity: 1; white-space: pre;">−0.8</text></g><g class="ytick"><text text-anchor="end" x="126" y="12.6" transform="translate(0,519.15)" style="font-family: Arial; font-size: 36px; fill: rgb(68, 68, 68); fill-opacity: 1; white-space: pre;">−0.6</text></g><g class="ytick"><text text-anchor="end" x="126" y="12.6" transform="translate(0,461.39)" style="font-family: Arial; font-size: 36px; fill: rgb(68, 68, 68); fill-opacity: 1; white-space: pre;">−0.4</text></g><g class="ytick"><text text-anchor="end" x="126" y="12.6" transform="translate(0,403.63)" style="font-family: Arial; font-size: 36px; fill: rgb(68, 68, 68); fill-opacity: 1; white-space: pre;">−0.2</text></g><g class="ytick"><text text-anchor="end" x="126" y="12.6" transform="translate(0,345.87)" style="font-family: Arial; font-size: 36px; fill: rgb(68, 68, 68); fill-opacity: 1; white-space: pre;">0</text></g><g class="ytick"><text text-anchor="end" x="126" y="12.6" transform="translate(0,288.12)" style="font-family: Arial; font-size: 36px; fill: rgb(68, 68, 68); fill-opacity: 1; white-space: pre;">0.2</text></g><g class="ytick"><text text-anchor="end" x="126" y="12.6" transform="translate(0,230.36)" style="font-family: Arial; font-size: 36px; fill: rgb(68, 68, 68); fill-opacity: 1; white-space: pre;">0.4</text></g><g class="ytick"><text text-anchor="end" x="126" y="12.6" transform="translate(0,172.6)" style="font-family: Arial; font-size: 36px; fill: rgb(68, 68, 68); fill-opacity: 1; white-space: pre;">0.6</text></g><g class="ytick"><text text-anchor="end" x="126" y="12.6" transform="translate(0,114.84)" style="font-family: Arial; font-size: 36px; fill: rgb(68, 68, 68); fill-opacity: 1; white-space: pre;">0.8</text></g></g><g class="overaxes-above"/></g></g><g class="polarlayer"/><g class="ternarylayer"/><g class="geolayer"/><g class="pielayer"/><g class="glimages"/><defs id="topdefs-b62bd8"><g class="clips"/><clipPath id="legendb62bd8"><rect width="602" height="160" x="0" y="0"/></clipPath></defs><g class="layer-above"><g class="imagelayer"/><g class="shapelayer"/></g><g class="infolayer"><g class="legend" pointer-events="all" transform="translate(1352.8, 100)"><rect class="bg" shape-rendering="crispEdges" width="602" height="160" x="0" y="0" style="stroke: rgb(68, 68, 68); stroke-opacity: 1; fill: rgb(255, 255, 255); fill-opacity: 1; stroke-width: 0px;"/><g class="scrollbox" transform="translate(0, 0)" clip-path="url(#legendb62bd8)"><g class="groups"><g class="traces" transform="translate(0, 29.900000000000002)" style="opacity: 1;"><text class="legendtext user-select-none" text-anchor="start" x="40" y="14.040000000000001" style="font-family: Arial; font-size: 36px; fill: rgb(68, 68, 68); fill-opacity: 1; white-space: pre;">Ciliates (stop = UGA)</text><rect class="legendtoggle" pointer-events="all" x="0" y="-24.900000000000002" width="642" height="49.800000000000004" style="cursor: pointer; fill: rgb(0, 0, 0); fill-opacity: 0;"/><g class="layers" style="opacity: 1;"><g class="legendfill"/><g class="legendlines"/><g class="legendsymbols"><g class="legendpoints"><path class="legendbox" d="M6,6H-6V-6H6Z" transform="translate(20,0)" style="stroke-width: 2px; fill: rgb(255, 0, 0); fill-opacity: 0.5; stroke: rgb(255, 0, 0); stroke-opacity: 1;"/></g></g></g></g><g class="traces" transform="translate(0, 79.7)" style="opacity: 1;"><text class="legendtext user-select-none" text-anchor="start" x="40" y="14.040000000000001" style="font-family: Arial; font-size: 36px; fill: rgb(68, 68, 68); fill-opacity: 1; white-space: pre;">Alveolates (Standard Code)</text><rect class="legendtoggle" pointer-events="all" x="0" y="-24.900000000000002" width="642" height="49.800000000000004" style="cursor: pointer; fill: rgb(0, 0, 0); fill-opacity: 0;"/><g class="layers" style="opacity: 1;"><g class="legendfill"/><g class="legendlines"/><g class="legendsymbols"><g class="legendpoints"><path class="legendbox" d="M6,6H-6V-6H6Z" transform="translate(20,0)" style="stroke-width: 2px; fill: rgb(0, 128, 0); fill-opacity: 0.5; stroke: rgb(0, 128, 0); stroke-opacity: 1;"/></g></g></g></g><g class="traces" transform="translate(0, 129.5)" style="opacity: 1;"><text class="legendtext user-select-none" text-anchor="start" x="40" y="14.040000000000001" style="font-family: Arial; font-size: 36px; fill: rgb(68, 68, 68); fill-opacity: 1; white-space: pre;">Other Eukaryotes (Standard Code)</text><rect class="legendtoggle" pointer-events="all" x="0" y="-24.900000000000002" width="642" height="49.800000000000004" style="cursor: pointer; fill: rgb(0, 0, 0); fill-opacity: 0;"/><g class="layers" style="opacity: 1;"><g class="legendfill"/><g class="legendlines"/><g class="legendsymbols"><g class="legendpoints"><path class="legendbox" d="M6,6H-6V-6H6Z" transform="translate(20,0)" style="stroke-width: 2px; fill: rgb(0, 0, 0); fill-opacity: 0.5; stroke: rgb(0, 0, 0); stroke-opacity: 1;"/></g></g></g></g></g></g><rect class="scrollbar" rx="20" ry="3" width="0" height="0" x="0" y="0" style="fill: rgb(128, 139, 164); fill-opacity: 1;"/></g><g class="g-gtitle"><text class="gtitle" x="1125" y="50" text-anchor="middle" dy="0em" style="font-family: Arial; font-size: 50px; fill: rgb(68, 68, 68); opacity: 1; font-weight: normal; white-space: pre;">Stop Codon Overrepresentation in 3' UTRs</text></g><g class="g-xtitle" transform="translate(0,-48)"><text class="xtitle" x="1148.5" y="789" text-anchor="middle" style="font-family: Arial; font-size: 43px; fill: rgb(68, 68, 68); opacity: 1; font-weight: normal; white-space: pre;">In-frame 3' UTR Codon Position</text></g><g class="g-ytitle" transform="translate(8,0)"><text class="ytitle" transform="rotate(-90,31,375)" x="31" y="375" text-anchor="middle" style="font-family: Arial; font-size: 43px; fill: rgb(68, 68, 68); opacity: 1; font-weight: normal; white-space: pre;">Stop Codon Overrepresentation Score</text></g></g></svg>